<svg width="44" height="22" viewBox="0 0 44 22" fill="none" xmlns="http://www.w3.org/2000/svg">
<rect width="44" height="22" rx="8" fill="#6F42B8"/>
<path d="M11.055 6.29H15.436V7.811H11.146C10.8687 7.811 10.6477 7.89333 10.483 8.058C10.3183 8.214 10.236 8.40033 10.236 8.617C10.236 8.80767 10.2923 8.981 10.405 9.137C10.5263 9.293 10.6997 9.397 10.925 9.449L14.084 10.203C14.708 10.359 15.1847 10.658 15.514 11.1C15.8433 11.5333 16.008 12.0143 16.008 12.543C16.008 13.2103 15.7783 13.7867 15.319 14.272C14.8683 14.7573 14.2443 15 13.447 15H8.871V13.479H13.382C13.6767 13.479 13.9107 13.388 14.084 13.206C14.2573 13.024 14.344 12.816 14.344 12.582C14.344 12.3827 14.279 12.2007 14.149 12.036C14.019 11.8627 13.837 11.75 13.603 11.698L10.431 10.944C9.81567 10.7967 9.34767 10.5107 9.027 10.086C8.715 9.65267 8.559 9.176 8.559 8.656C8.559 8.01467 8.78 7.46 9.222 6.992C9.664 6.524 10.275 6.29 11.055 6.29ZM19.797 15.182C18.7657 15.182 17.925 14.857 17.275 14.207C16.625 13.5483 16.3 12.7337 16.3 11.763C16.3 10.7923 16.6207 9.982 17.262 9.332C17.912 8.682 18.757 8.357 19.797 8.357C20.8197 8.357 21.6473 8.682 22.28 9.332C22.9213 9.982 23.242 10.7923 23.242 11.763C23.242 12.7337 22.9213 13.5483 22.28 14.207C21.6387 14.857 20.811 15.182 19.797 15.182ZM19.797 13.752C20.369 13.752 20.837 13.5613 21.201 13.18C21.565 12.7987 21.747 12.3307 21.747 11.776C21.747 11.2127 21.565 10.7447 21.201 10.372C20.837 9.99067 20.369 9.8 19.797 9.8C19.2077 9.8 18.7267 9.99067 18.354 10.372C17.99 10.7447 17.808 11.2127 17.808 11.776C17.808 12.3307 17.99 12.7987 18.354 13.18C18.7267 13.5613 19.2077 13.752 19.797 13.752ZM27.0338 15.182C26.0025 15.182 25.1618 14.857 24.5118 14.207C23.8618 13.5483 23.5368 12.7337 23.5368 11.763C23.5368 10.7923 23.8575 9.982 24.4988 9.332C25.1488 8.682 25.9938 8.357 27.0338 8.357C28.0565 8.357 28.8842 8.682 29.5168 9.332C30.1582 9.982 30.4788 10.7923 30.4788 11.763C30.4788 12.7337 30.1582 13.5483 29.5168 14.207C28.8755 14.857 28.0478 15.182 27.0338 15.182ZM27.0338 13.752C27.6058 13.752 28.0738 13.5613 28.4378 13.18C28.8018 12.7987 28.9838 12.3307 28.9838 11.776C28.9838 11.2127 28.8018 10.7447 28.4378 10.372C28.0738 9.99067 27.6058 9.8 27.0338 9.8C26.4445 9.8 25.9635 9.99067 25.5908 10.372C25.2268 10.7447 25.0448 11.2127 25.0448 11.776C25.0448 12.3307 25.2268 12.7987 25.5908 13.18C25.9635 13.5613 26.4445 13.752 27.0338 13.752ZM34.7018 8.357C35.5165 8.357 36.1621 8.62133 36.6388 9.15C37.1155 9.67 37.3538 10.3807 37.3538 11.282V15H35.8588V11.516C35.8588 11.0047 35.7158 10.5973 35.4298 10.294C35.1525 9.982 34.7841 9.826 34.3248 9.826C33.8221 9.826 33.4061 10.0037 33.0768 10.359C32.7475 10.7057 32.5828 11.1563 32.5828 11.711V15H31.0878V8.539H32.5568V9.371H32.6088C33.1115 8.695 33.8091 8.357 34.7018 8.357Z" fill="white"/>
</svg>
